fd_9_states
version=1
nRows=35
nColumns=17
inDegrees=yes

# SIMM Motion File Header:
name fd_9_states
datacolumns 17
datarows 35
otherdata 1
range 0.406450 0.430029
endheader
time	/jointset/r_shoulder/r_shoulder_elev/value	/jointset/r_shoulder/r_shoulder_elev/speed	/jointset/r_elbow/r_elbow_flex/value	/jointset/r_elbow/r_elbow_flex/speed	/forceset/TRIlong/activation	/forceset/TRIlong/fiber_length	/forceset/TRIlat/activation	/forceset/TRIlat/fiber_length	/forceset/TRImed/activation	/forceset/TRImed/fiber_length	/forceset/BIClong/activation	/forceset/BIClong/fiber_length	/forceset/BICshort/activation	/forceset/BICshort/fiber_length	/forceset/BRA/activation	/forceset/BRA/fiber_length
      0.406450	     -4.777940	    -67.528458	    124.692921	    262.708359	      0.020809	      0.178089	      0.234698	      0.114665	      0.231935	      0.109715	      0.989301	      0.068267	      0.530722	      0.067379	      0.021681	      0.054513
      0.407724	     -4.863968	    -67.513709	    125.027482	    262.475067	      0.020795	      0.178143	      0.235798	      0.114775	      0.233047	      0.109825	      0.989966	      0.068044	      0.532835	      0.067125	      0.021653	      0.054378
      0.408998	     -4.949968	    -67.486562	    125.361714	    262.188552	      0.020782	      0.178201	      0.236743	      0.114884	      0.234002	      0.109935	      0.990590	      0.067822	      0.534747	      0.066876	      0.021625	      0.054244
      0.409448	     -4.980353	    -67.472467	    125.479750	    262.076466	      0.020777	      0.178219	      0.237044	      0.114923	      0.234306	      0.109974	      0.990801	      0.067744	      0.535378	      0.066789	      0.021615	      0.054197
      0.409709	     -4.997916	    -67.463723	    125.547964	    262.008507	      0.020775	      0.178230	      0.237211	      0.114946	      0.234475	      0.109996	      0.990921	      0.067699	      0.535733	      0.066739	      0.021609	      0.054169
      0.409890	     -5.010125	    -67.457338	    125.595376	    261.959962	      0.020773	      0.178238	      0.237325	      0.114961	      0.234589	      0.110012	      0.991003	      0.067668	      0.535975	      0.066704	      0.021606	      0.054150
      0.409980	     -5.016251	    -67.454034	    125.619166	    261.935205	      0.020772	      0.178242	      0.237380	      0.114969	      0.234646	      0.110020	      0.991044	      0.067652	      0.536096	      0.066686	      0.021604	      0.054141
      0.410010	     -5.018269	    -67.452932	    125.627000	    261.926994	      0.020772	      0.178243	      0.237404	      0.114972	      0.234669	      0.110022	      0.991057	      0.067647	      0.536253	      0.066681	      0.021603	      0.054138
      0.410040	     -5.020286	    -67.451821	    125.634835	    261.918754	      0.020771	      0.178245	      0.237463	      0.114974	      0.234729	      0.110025	      0.991071	      0.067642	      0.537262	      0.066675	      0.021602	      0.054134
      0.410070	     -5.022304	    -67.450704	    125.642669	    261.910486	      0.020771	      0.178246	      0.237525	      0.114977	      0.234791	      0.110028	      0.991084	      0.067637	      0.538320	      0.066669	      0.021602	      0.054131
      0.410220	     -5.032391	    -67.444998	    125.681834	    261.868723	      0.020769	      0.178253	      0.237829	      0.114990	      0.235096	      0.110040	      0.991151	      0.067611	      0.543555	      0.066640	      0.021599	      0.054116
      0.410967	     -5.082811	    -67.413139	    125.877567	    261.650458	      0.020762	      0.178285	      0.239271	      0.115053	      0.236545	      0.110104	      0.991478	      0.067482	      0.568433	      0.066488	      0.021583	      0.054037
      0.413460	     -5.250657	    -67.261767	    126.528759	    260.900547	      0.020737	      0.178393	      0.243247	      0.115262	      0.240535	      0.110313	      0.992482	      0.067057	      0.638504	      0.065932	      0.021531	      0.053777
      0.415311	     -5.375003	    -67.104153	    127.011196	    260.465943	      0.020719	      0.178472	      0.245528	      0.115417	      0.242820	      0.110469	      0.993150	      0.066744	      0.680727	      0.065502	      0.021494	      0.053585
      0.416443	     -5.450904	    -66.990490	    127.305941	    260.284667	      0.020708	      0.178523	      0.246698	      0.115513	      0.243991	      0.110565	      0.993529	      0.066554	      0.703379	      0.065241	      0.021471	      0.053468
      0.417575	     -5.526667	    -66.860251	    127.600525	    260.181120	      0.020698	      0.178570	      0.247723	      0.115608	      0.245017	      0.110661	      0.993887	      0.066366	      0.724004	      0.064983	      0.021449	      0.053351
      0.419034	     -5.624118	    -66.671633	    127.980241	    260.157782	      0.020684	      0.178635	      0.248860	      0.115732	      0.246155	      0.110785	      0.994319	      0.066124	      0.748006	      0.064657	      0.021422	      0.053201
      0.419516	     -5.656194	    -66.602985	    128.105472	    260.177780	      0.020680	      0.178655	      0.249195	      0.115773	      0.246489	      0.110826	      0.994454	      0.066045	      0.755349	      0.064551	      0.021413	      0.053151
      0.419964	     -5.686076	    -66.536690	    128.222268	    260.207391	      0.020676	      0.178674	      0.249491	      0.115812	      0.246785	      0.110864	      0.994578	      0.065971	      0.761963	      0.064454	      0.021404	      0.053105
      0.420004	     -5.688731	    -66.530678	    128.232653	    260.210533	      0.020676	      0.178676	      0.249516	      0.115815	      0.246810	      0.110868	      0.994589	      0.065965	      0.762431	      0.064445	      0.021403	      0.053101
      0.420027	     -5.690230	    -66.527277	    128.238513	    260.212342	      0.020675	      0.178677	      0.249519	      0.115817	      0.246814	      0.110870	      0.994595	      0.065961	      0.761953	      0.064440	      0.021403	      0.053099
      0.420049	     -5.691728	    -66.523870	    128.244373	    260.214177	      0.020675	      0.178678	      0.249522	      0.115819	      0.246818	      0.110872	      0.994601	      0.065957	      0.761389	      0.064435	      0.021403	      0.053097
      0.420162	     -5.699218	    -66.506741	    128.273674	    260.223712	      0.020674	      0.178682	      0.249535	      0.115828	      0.246835	      0.110881	      0.994631	      0.065939	      0.758581	      0.064411	      0.021400	      0.053085
      0.420725	     -5.736637	    -66.418810	    128.420197	    260.278010	      0.020669	      0.178707	      0.249597	      0.115877	      0.246916	      0.110930	      0.994781	      0.065847	      0.744837	      0.064296	      0.021390	      0.053027
      0.423540	     -5.922935	    -65.927420	    129.153224	    260.459866	      0.020645	      0.178829	      0.249855	      0.116120	      0.247251	      0.111174	      0.995469	      0.065390	      0.682814	      0.063806	      0.021339	      0.052739
      0.425234	     -6.034337	    -65.596234	    129.594327	    260.278661	      0.020630	      0.178904	      0.249975	      0.116268	      0.247407	      0.111321	      0.995838	      0.065117	      0.650139	      0.063552	      0.021309	      0.052567
      0.426377	     -6.109184	    -65.358860	    129.891687	    259.982252	      0.020621	      0.178952	      0.250044	      0.116367	      0.247495	      0.111420	      0.996070	      0.064935	      0.629775	      0.063390	      0.021289	      0.052451
      0.427520	     -6.183754	    -65.114953	    130.188619	    259.528670	      0.020611	      0.179004	      0.250104	      0.116466	      0.247573	      0.111519	      0.996289	      0.064753	      0.610630	      0.063234	      0.021270	      0.052335
      0.428944	     -6.276247	    -64.799335	    130.557625	    258.744769	      0.020600	      0.179064	      0.250169	      0.116590	      0.247657	      0.111643	      0.996544	      0.064529	      0.588335	      0.063044	      0.021246	      0.052191
      0.429373	     -6.304001	    -64.703396	    130.668469	    258.460014	      0.020597	      0.179084	      0.250186	      0.116627	      0.247680	      0.111680	      0.996618	      0.064461	      0.581937	      0.062987	      0.021239	      0.052148
      0.429641	     -6.321382	    -64.642644	    130.737907	    258.270604	      0.020595	      0.179096	      0.250197	      0.116650	      0.247694	      0.111703	      0.996663	      0.064419	      0.577995	      0.062952	      0.021235	      0.052121
      0.429978	     -6.343157	    -64.565982	    130.824916	    258.021165	      0.020592	      0.179110	      0.250209	      0.116679	      0.247710	      0.111732	      0.996719	      0.064367	      0.573126	      0.062908	      0.021229	      0.052088
      0.430004	     -6.344784	    -64.560231	    130.831418	    258.001984	      0.020594	      0.179112	      0.250200	      0.116681	      0.247702	      0.111734	      0.996723	      0.064363	      0.572821	      0.062905	      0.021296	      0.052085
      0.430016	     -6.345589	    -64.557387	    130.834633	    257.992473	      0.020606	      0.179112	      0.250143	      0.116682	      0.247645	      0.111735	      0.996725	      0.064361	      0.573145	      0.062903	      0.021692	      0.052084
      0.430029	     -6.346393	    -64.554542	    130.837847	    257.982944	      0.020620	      0.179113	      0.250081	      0.116683	      0.247584	      0.111736	      0.996727	      0.064359	      0.573536	      0.062902	      0.022126	      0.052083
